<svg width="16" height="16" viewBox="0 0 16 16" fill="none" xmlns="http://www.w3.org/2000/svg">
<path d="M12.1667 12.997C12.2993 12.997 12.4265 13.0497 12.5202 13.1434C12.614 13.2372 12.6667 13.3644 12.6667 13.497C12.6667 13.6296 12.614 13.7568 12.5202 13.8505C12.4265 13.9443 12.2993 13.997 12.1667 13.997L3.5 13.9997C3.36739 13.9997 3.24021 13.947 3.14645 13.8532C3.05268 13.7594 3 13.6323 3 13.4997C3 13.3671 3.05268 13.2399 3.14645 13.1461C3.24021 13.0523 3.36739 12.9997 3.5 12.9997L12.1667 12.997ZM7.76533 2.67166L7.83333 2.66699C7.95416 2.667 8.07089 2.71075 8.16195 2.79017C8.25301 2.86959 8.31223 2.97929 8.32867 3.09899L8.33333 3.16699L8.33267 10.2903L10.814 7.81033C10.8987 7.72565 11.0109 7.67416 11.1303 7.66523C11.2497 7.6563 11.3684 7.69052 11.4647 7.76166L11.5213 7.81033C11.6059 7.89507 11.6573 8.00735 11.6661 8.12675C11.6749 8.24615 11.6406 8.36476 11.5693 8.46099L11.5207 8.51699L8.18933 11.8483C8.10467 11.933 7.99244 11.9845 7.87303 11.9934C7.75363 12.0024 7.63498 11.9681 7.53867 11.897L7.482 11.8483L4.14667 8.51766C4.05697 8.42855 4.00437 8.30878 3.99944 8.18245C3.9945 8.05611 4.03761 7.9326 4.12009 7.83678C4.20256 7.74095 4.31828 7.67993 4.44393 7.66599C4.56959 7.65205 4.69587 7.68624 4.79733 7.76166L4.85333 7.80966L7.33267 10.2857L7.33333 3.16699C7.33334 3.04617 7.3771 2.92943 7.45651 2.83837C7.53593 2.74731 7.64563 2.68809 7.76533 2.67166Z" fill="white"/>
</svg>
