<svg width="24" height="24" viewBox="0 0 24 24" fill="none" xmlns="http://www.w3.org/2000/svg">
<path d="M14.5 2.00898C15.0829 2.00891 15.6552 2.16563 16.1567 2.46271C16.6583 2.7598 17.0707 3.18631 17.3507 3.69756C17.6308 4.20881 17.7682 4.78597 17.7485 5.36858C17.7289 5.95118 17.5529 6.51777 17.239 7.00898H19.75C20.44 7.00898 21 7.56898 21 8.25898V11.759C21.0001 12.0471 20.9006 12.3265 20.7183 12.5497C20.5361 12.7729 20.2823 12.9263 20 12.984V18.759C20.0001 19.5891 19.6824 20.3878 19.1123 20.9912C18.5422 21.5946 17.7628 21.957 16.934 22.004L16.75 22.009H7.25C6.41986 22.009 5.62117 21.6914 5.01777 21.1213C4.41437 20.5512 4.052 19.7718 4.005 18.943L4 18.759V12.984C3.43 12.868 3 12.364 3 11.759V8.25898C3 7.56898 3.56 7.00898 4.25 7.00898H6.761C6.31242 6.31203 6.14707 5.47004 6.29875 4.65521C6.45044 3.84038 6.90771 3.11429 7.57704 2.62546C8.24636 2.13662 9.07716 1.92198 9.8995 2.02542C10.7219 2.12887 11.4736 2.5426 12.001 3.18198C12.3055 2.81449 12.6873 2.51878 13.1193 2.31601C13.5513 2.11323 14.0228 2.00839 14.5 2.00898ZM11.25 13.008H5.5V18.759C5.50002 19.1982 5.66517 19.6213 5.96268 19.9444C6.26019 20.2674 6.6683 20.4668 7.106 20.503L7.25 20.509H11.25V13.008ZM18.5 13.008H12.75V20.509H16.75C17.1893 20.5089 17.6126 20.3436 17.9357 20.0459C18.2588 19.7482 18.4581 19.3399 18.494 18.902L18.5 18.759V13.008ZM11.25 8.50898H4.5V11.509L11.25 11.508V8.50898ZM19.5 11.509V8.50898H12.75V11.508L19.5 11.509ZM14.5 3.50898C14.0359 3.50898 13.5908 3.69335 13.2626 4.02154C12.9344 4.34973 12.75 4.79485 12.75 5.25898V7.00798H14.524L14.644 7.00298C15.094 6.96562 15.5121 6.75579 15.811 6.41735C16.1098 6.07891 16.2663 5.63805 16.2477 5.18692C16.2291 4.73578 16.0369 4.30929 15.7112 3.99659C15.3855 3.68389 14.9515 3.50918 14.5 3.50898ZM9.5 3.50898C9.04848 3.50918 8.61452 3.68389 8.28881 3.99659C7.96311 4.30929 7.77086 4.73578 7.75227 5.18692C7.73368 5.63805 7.89017 6.07891 8.18904 6.41735C8.48792 6.75579 8.90603 6.96562 9.356 7.00298L9.476 7.00798H11.25V5.25898L11.244 5.11498C11.2079 4.67728 11.0085 4.26917 10.6854 3.97166C10.3623 3.67415 9.93919 3.50899 9.5 3.50898Z" fill="black"/>
</svg>
