<svg width="14" height="14" viewBox="0 0 14 14" fill="none" xmlns="http://www.w3.org/2000/svg">
<path fill-rule="evenodd" clip-rule="evenodd" d="M0.332031 6.99967C0.332031 3.31967 3.31203 0.333008 6.99203 0.333008C10.6787 0.333008 13.6654 3.31967 13.6654 6.99967C13.6654 10.6797 10.6787 13.6663 6.99203 13.6663C3.31203 13.6663 0.332031 10.6797 0.332031 6.99967ZM9.64536 4.33301H11.612C10.972 3.23301 9.95203 2.37967 8.72536 1.95967C9.12537 2.69967 9.43203 3.49967 9.64536 4.33301ZM6.9987 1.69301C7.55203 2.49301 7.98536 3.37967 8.27203 4.33301H5.72536C6.01203 3.37967 6.44536 2.49301 6.9987 1.69301ZM1.66536 6.99967C1.66536 7.45967 1.73203 7.90634 1.8387 8.33301H4.09203C4.0387 7.89301 3.9987 7.45301 3.9987 6.99967C3.9987 6.54634 4.0387 6.10634 4.09203 5.66634H1.8387C1.73203 6.09301 1.66536 6.53967 1.66536 6.99967ZM2.38536 9.66634H4.35203C4.56536 10.4997 4.87203 11.2997 5.27203 12.0397C4.04536 11.6197 3.02536 10.773 2.38536 9.66634ZM2.38536 4.33301H4.35203C4.56536 3.49967 4.87203 2.69967 5.27203 1.95967C4.04536 2.37967 3.02536 3.22634 2.38536 4.33301ZM6.9987 12.3063C6.44536 11.5063 6.01203 10.6197 5.72536 9.66634H8.27203C7.98536 10.6197 7.55203 11.5063 6.9987 12.3063ZM5.33203 6.99967C5.33203 7.45301 5.3787 7.89301 5.4387 8.33301H8.5587C8.6187 7.89301 8.66537 7.45301 8.66537 6.99967C8.66537 6.54634 8.6187 6.09967 8.5587 5.66634H5.4387C5.3787 6.09967 5.33203 6.54634 5.33203 6.99967ZM8.72536 12.0397C9.12537 11.2997 9.43203 10.4997 9.64536 9.66634H11.612C10.972 10.7663 9.95203 11.6197 8.72536 12.0397ZM9.9987 6.99967C9.9987 7.45301 9.9587 7.89301 9.90536 8.33301H12.1587C12.2654 7.90634 12.332 7.45967 12.332 6.99967C12.332 6.53967 12.2654 6.09301 12.1587 5.66634H9.90536C9.9587 6.10634 9.9987 6.54634 9.9987 6.99967Z" fill="#666666"/>
</svg>
